<mxfile host="65bd71144e">
    <diagram name="Page-1" id="UEPm4yRY4TWdFPG1XQJA">
        <mxGraphModel dx="1134" dy="827" grid="1" gridSize="10" guides="1" tooltips="1" connect="1" arrows="1" fold="1" page="1" pageScale="1" pageWidth="850" pageHeight="1100" math="0" shadow="0">
            <root>
                <mxCell id="0"/>
                <mxCell id="1" parent="0"/>
                <mxCell id="3" value="" style="rounded=0;whiteSpace=wrap;html=1;" vertex="1" parent="1">
                    <mxGeometry x="18.25" y="80" width="811.75" height="700" as="geometry"/>
                </mxCell>
                <mxCell id="888BCyRFIgqNpopl8amn-6" value="AWS Cloud" style="sketch=0;outlineConnect=0;html=1;whiteSpace=wrap;fontSize=12;fontStyle=0;shape=mxgraph.aws4.group;grIcon=mxgraph.aws4.group_aws_cloud;strokeColor=#666666;fillColor=#f5f5f5;verticalAlign=top;align=left;spacingLeft=30;fontColor=#333333;dashed=0;" parent="1" vertex="1">
                    <mxGeometry x="40" y="100" width="770" height="660" as="geometry"/>
                </mxCell>
                <mxCell id="888BCyRFIgqNpopl8amn-1" value="Exchange Rate Reader" style="outlineConnect=0;dashed=0;verticalLabelPosition=bottom;verticalAlign=top;align=center;html=1;shape=mxgraph.aws3.lambda_function;fillColor=#F58534;gradientColor=none;" parent="1" vertex="1">
                    <mxGeometry x="330" y="150" width="69" height="72" as="geometry"/>
                </mxCell>
                <mxCell id="888BCyRFIgqNpopl8amn-16" value="AWS Event Bridge&lt;br&gt;Every 14:00 PM" style="sketch=0;points=[[0,0,0],[0.25,0,0],[0.5,0,0],[0.75,0,0],[1,0,0],[0,1,0],[0.25,1,0],[0.5,1,0],[0.75,1,0],[1,1,0],[0,0.25,0],[0,0.5,0],[0,0.75,0],[1,0.25,0],[1,0.5,0],[1,0.75,0]];outlineConnect=0;fontColor=#232F3E;fillColor=#E7157B;strokeColor=#ffffff;dashed=0;verticalLabelPosition=bottom;verticalAlign=top;align=center;html=1;fontSize=12;fontStyle=0;aspect=fixed;shape=mxgraph.aws4.resourceIcon;resIcon=mxgraph.aws4.eventbridge;" parent="1" vertex="1">
                    <mxGeometry x="100" y="150" width="78" height="78" as="geometry"/>
                </mxCell>
                <mxCell id="888BCyRFIgqNpopl8amn-22" value="DynamoDB" style="outlineConnect=0;dashed=0;verticalLabelPosition=bottom;verticalAlign=top;align=center;html=1;shape=mxgraph.aws3.dynamo_db;fillColor=#2E73B8;gradientColor=none;strokeColor=#DDA15E;fontColor=#000000;" parent="1" vertex="1">
                    <mxGeometry x="530" y="146" width="72" height="80" as="geometry"/>
                </mxCell>
                <mxCell id="888BCyRFIgqNpopl8amn-25" value="" style="endArrow=classic;html=1;rounded=0;strokeColor=#DDA15E;fontColor=#FEFAE0;fillColor=#BC6C25;" parent="1" source="888BCyRFIgqNpopl8amn-1" target="888BCyRFIgqNpopl8amn-22" edge="1">
                    <mxGeometry width="50" height="50" relative="1" as="geometry">
                        <mxPoint x="400" y="450" as="sourcePoint"/>
                        <mxPoint x="450" y="400" as="targetPoint"/>
                        <Array as="points"/>
                    </mxGeometry>
                </mxCell>
                <mxCell id="888BCyRFIgqNpopl8amn-29" value="" style="endArrow=classic;html=1;rounded=0;strokeColor=#DDA15E;fontColor=#FEFAE0;fillColor=#BC6C25;" parent="1" source="888BCyRFIgqNpopl8amn-1" target="888BCyRFIgqNpopl8amn-30" edge="1">
                    <mxGeometry width="50" height="50" relative="1" as="geometry">
                        <mxPoint x="440" y="440" as="sourcePoint"/>
                        <mxPoint x="408.20000000000005" y="470" as="targetPoint"/>
                        <Array as="points"/>
                    </mxGeometry>
                </mxCell>
                <mxCell id="888BCyRFIgqNpopl8amn-45" value="" style="edgeStyle=orthogonalEdgeStyle;rounded=0;orthogonalLoop=1;jettySize=auto;html=1;strokeColor=#DDA15E;fontColor=#FEFAE0;fillColor=#BC6C25;" parent="1" source="888BCyRFIgqNpopl8amn-30" target="888BCyRFIgqNpopl8amn-42" edge="1">
                    <mxGeometry relative="1" as="geometry"/>
                </mxCell>
                <mxCell id="888BCyRFIgqNpopl8amn-30" value="&lt;font style=&quot;color: rgb(0, 0, 0);&quot;&gt;SNS&lt;/font&gt;" style="outlineConnect=0;dashed=0;verticalLabelPosition=bottom;verticalAlign=top;align=center;html=1;shape=mxgraph.aws3.sns;fillColor=#D9A741;gradientColor=none;strokeColor=#DDA15E;fontColor=#FEFAE0;" parent="1" vertex="1">
                    <mxGeometry x="130" y="327.75" width="76.5" height="76.5" as="geometry"/>
                </mxCell>
                <mxCell id="888BCyRFIgqNpopl8amn-33" value="&lt;font style=&quot;color: rgb(0, 0, 0);&quot;&gt;SQS&lt;/font&gt;" style="outlineConnect=0;dashed=0;verticalLabelPosition=bottom;verticalAlign=top;align=center;html=1;shape=mxgraph.aws3.sqs;fillColor=#D9A741;gradientColor=none;strokeColor=#DDA15E;fontColor=#FEFAE0;" parent="1" vertex="1">
                    <mxGeometry x="380" y="480" width="76.5" height="93" as="geometry"/>
                </mxCell>
                <mxCell id="888BCyRFIgqNpopl8amn-34" value="X (Twitter) Publisher" style="outlineConnect=0;dashed=0;verticalLabelPosition=bottom;verticalAlign=top;align=center;html=1;shape=mxgraph.aws3.lambda_function;fillColor=#F58534;gradientColor=none;" parent="1" vertex="1">
                    <mxGeometry x="380" y="640" width="69" height="72" as="geometry"/>
                </mxCell>
                <mxCell id="888BCyRFIgqNpopl8amn-38" value="Linkedin Publisher" style="outlineConnect=0;dashed=0;verticalLabelPosition=bottom;verticalAlign=top;align=center;html=1;shape=mxgraph.aws3.lambda_function;fillColor=#F58534;gradientColor=none;" parent="1" vertex="1">
                    <mxGeometry x="614.75" y="640" width="69" height="72" as="geometry"/>
                </mxCell>
                <mxCell id="888BCyRFIgqNpopl8amn-39" value="" style="endArrow=classic;html=1;rounded=0;strokeColor=#DDA15E;fontColor=#FEFAE0;fillColor=#BC6C25;" parent="1" source="888BCyRFIgqNpopl8amn-50" target="888BCyRFIgqNpopl8amn-38" edge="1">
                    <mxGeometry width="50" height="50" relative="1" as="geometry">
                        <mxPoint x="700" y="440" as="sourcePoint"/>
                        <mxPoint x="560" y="563" as="targetPoint"/>
                    </mxGeometry>
                </mxCell>
                <mxCell id="888BCyRFIgqNpopl8amn-40" value="DLQ" style="sketch=0;outlineConnect=0;fontColor=#232F3E;gradientColor=none;strokeColor=#ffffff;fillColor=#232F3E;dashed=0;verticalLabelPosition=middle;verticalAlign=bottom;align=center;html=1;whiteSpace=wrap;fontSize=10;fontStyle=1;spacing=3;shape=mxgraph.aws4.productIcon;prIcon=mxgraph.aws4.sqs;" parent="1" vertex="1">
                    <mxGeometry x="740" y="493.25" width="50" height="66.5" as="geometry"/>
                </mxCell>
                <mxCell id="888BCyRFIgqNpopl8amn-42" value="Image Processor" style="outlineConnect=0;dashed=0;verticalLabelPosition=bottom;verticalAlign=top;align=center;html=1;shape=mxgraph.aws3.lambda_function;fillColor=#F58534;gradientColor=none;" parent="1" vertex="1">
                    <mxGeometry x="330" y="330" width="69" height="72" as="geometry"/>
                </mxCell>
                <mxCell id="888BCyRFIgqNpopl8amn-46" value="&lt;font style=&quot;color: rgb(0, 0, 0);&quot;&gt;SNS&lt;/font&gt;" style="outlineConnect=0;dashed=0;verticalLabelPosition=bottom;verticalAlign=top;align=center;html=1;shape=mxgraph.aws3.sns;fillColor=#D9A741;gradientColor=none;strokeColor=#DDA15E;fontColor=#FEFAE0;" parent="1" vertex="1">
                    <mxGeometry x="550" y="327.75" width="76.5" height="76.5" as="geometry"/>
                </mxCell>
                <mxCell id="888BCyRFIgqNpopl8amn-47" value="" style="endArrow=classic;html=1;rounded=0;strokeColor=#DDA15E;fontColor=#FEFAE0;fillColor=#BC6C25;" parent="1" source="888BCyRFIgqNpopl8amn-42" target="888BCyRFIgqNpopl8amn-46" edge="1">
                    <mxGeometry width="50" height="50" relative="1" as="geometry">
                        <mxPoint x="440" y="440" as="sourcePoint"/>
                        <mxPoint x="490" y="390" as="targetPoint"/>
                    </mxGeometry>
                </mxCell>
                <mxCell id="888BCyRFIgqNpopl8amn-48" value="" style="endArrow=classic;html=1;rounded=0;strokeColor=#DDA15E;fontColor=#FEFAE0;fillColor=#BC6C25;" parent="1" source="888BCyRFIgqNpopl8amn-16" target="888BCyRFIgqNpopl8amn-1" edge="1">
                    <mxGeometry width="50" height="50" relative="1" as="geometry">
                        <mxPoint x="220" y="210" as="sourcePoint"/>
                        <mxPoint x="270" y="160" as="targetPoint"/>
                    </mxGeometry>
                </mxCell>
                <mxCell id="888BCyRFIgqNpopl8amn-49" value="" style="endArrow=classic;html=1;rounded=0;strokeColor=#DDA15E;fontColor=#FEFAE0;fillColor=#BC6C25;" parent="1" source="888BCyRFIgqNpopl8amn-46" target="888BCyRFIgqNpopl8amn-33" edge="1">
                    <mxGeometry width="50" height="50" relative="1" as="geometry">
                        <mxPoint x="602" y="370" as="sourcePoint"/>
                        <mxPoint x="689" y="360" as="targetPoint"/>
                    </mxGeometry>
                </mxCell>
                <mxCell id="888BCyRFIgqNpopl8amn-50" value="&lt;font style=&quot;color: rgb(0, 0, 0);&quot;&gt;SQS&lt;/font&gt;" style="outlineConnect=0;dashed=0;verticalLabelPosition=bottom;verticalAlign=top;align=center;html=1;shape=mxgraph.aws3.sqs;fillColor=#D9A741;gradientColor=none;strokeColor=#DDA15E;fontColor=#FEFAE0;" parent="1" vertex="1">
                    <mxGeometry x="611" y="480" width="76.5" height="93" as="geometry"/>
                </mxCell>
                <mxCell id="888BCyRFIgqNpopl8amn-52" value="" style="endArrow=classic;html=1;rounded=0;strokeColor=#DDA15E;fontColor=#FEFAE0;fillColor=#BC6C25;" parent="1" source="888BCyRFIgqNpopl8amn-46" target="888BCyRFIgqNpopl8amn-50" edge="1">
                    <mxGeometry width="50" height="50" relative="1" as="geometry">
                        <mxPoint x="610" y="450" as="sourcePoint"/>
                        <mxPoint x="660" y="400" as="targetPoint"/>
                    </mxGeometry>
                </mxCell>
                <mxCell id="888BCyRFIgqNpopl8amn-55" value="" style="endArrow=classic;html=1;rounded=0;strokeColor=#DDA15E;fontColor=#FEFAE0;fillColor=#BC6C25;" parent="1" source="888BCyRFIgqNpopl8amn-33" target="888BCyRFIgqNpopl8amn-34" edge="1">
                    <mxGeometry width="50" height="50" relative="1" as="geometry">
                        <mxPoint x="180" y="630" as="sourcePoint"/>
                        <mxPoint x="230" y="580" as="targetPoint"/>
                    </mxGeometry>
                </mxCell>
                <mxCell id="888BCyRFIgqNpopl8amn-56" value="" style="endArrow=classic;html=1;rounded=0;strokeColor=#DDA15E;fontColor=#FEFAE0;fillColor=#BC6C25;" parent="1" source="888BCyRFIgqNpopl8amn-33" target="888BCyRFIgqNpopl8amn-58" edge="1">
                    <mxGeometry width="50" height="50" relative="1" as="geometry">
                        <mxPoint x="440" y="440" as="sourcePoint"/>
                        <mxPoint x="490" y="390" as="targetPoint"/>
                    </mxGeometry>
                </mxCell>
                <mxCell id="888BCyRFIgqNpopl8amn-57" value="" style="endArrow=classic;html=1;rounded=0;strokeColor=#DDA15E;fontColor=#FEFAE0;fillColor=#BC6C25;" parent="1" source="888BCyRFIgqNpopl8amn-50" target="888BCyRFIgqNpopl8amn-40" edge="1">
                    <mxGeometry width="50" height="50" relative="1" as="geometry">
                        <mxPoint x="740" y="430" as="sourcePoint"/>
                        <mxPoint x="790" y="380" as="targetPoint"/>
                    </mxGeometry>
                </mxCell>
                <mxCell id="888BCyRFIgqNpopl8amn-58" value="DLQ" style="sketch=0;outlineConnect=0;fontColor=#232F3E;gradientColor=none;strokeColor=#ffffff;fillColor=#232F3E;dashed=0;verticalLabelPosition=middle;verticalAlign=bottom;align=center;html=1;whiteSpace=wrap;fontSize=10;fontStyle=1;spacing=3;shape=mxgraph.aws4.productIcon;prIcon=mxgraph.aws4.sqs;" parent="1" vertex="1">
                    <mxGeometry x="280" y="493.25" width="50" height="66.5" as="geometry"/>
                </mxCell>
                <mxCell id="888BCyRFIgqNpopl8amn-59" value="&lt;font style=&quot;color: rgb(0, 0, 0);&quot;&gt;S3 Store Image&amp;nbsp;&lt;/font&gt;" style="outlineConnect=0;dashed=0;verticalLabelPosition=bottom;verticalAlign=top;align=center;html=1;shape=mxgraph.aws3.bucket;fillColor=#E05243;gradientColor=none;strokeColor=#DDA15E;fontColor=#FEFAE0;" parent="1" vertex="1">
                    <mxGeometry x="138.25" y="493.25" width="60" height="61.5" as="geometry"/>
                </mxCell>
                <mxCell id="888BCyRFIgqNpopl8amn-60" value="" style="endArrow=classic;html=1;rounded=0;strokeColor=#DDA15E;fontColor=#FEFAE0;fillColor=#BC6C25;" parent="1" source="888BCyRFIgqNpopl8amn-42" target="888BCyRFIgqNpopl8amn-59" edge="1">
                    <mxGeometry width="50" height="50" relative="1" as="geometry">
                        <mxPoint x="440" y="440" as="sourcePoint"/>
                        <mxPoint x="490" y="390" as="targetPoint"/>
                    </mxGeometry>
                </mxCell>
            </root>
        </mxGraphModel>
    </diagram>
</mxfile>